<?xml version="1.0" encoding="UTF-8"?>
<svg id="Camada_2" data-name="Camada 2" xmlns="http://www.w3.org/2000/svg" viewBox="0 0 1000.09 410.99">
  <g id="Camada_1-2" data-name="Camada 1" fill="#0B0E0E">
    <path d="M495.28,341.92l-23.05-.23c-.19-.03-.44-.48-.39-.71l17.88-.34,317.02-11.77-.21,17.37-311.25-4.32Z"/>
    <path d="M316.43,312.07l-.05-8.49c9.5-.24,17.22-5.57,17.81-14.81l1.37-21.46v-118.17c0-7.05-.15-13.25-1.38-19.93-1.6-8.67-8.79-14.23-17.85-13.6l.06-8.25,67.53.02.06,154.21,1.33,25.41c.54,10.2,7.58,16.71,18.44,16.53l.24,8.56-87.55-.03Z"/>
    <path d="M378.49,66.48c-4.96,6.24-11.78,9.4-18.9,9.29s-14-3.78-18.62-9.96c-10.37-13.88-10.49-33.79-.2-47.73,5.24-7.1,13.29-11.39,21.99-10.22,7.92,1.07,14.36,6.12,18.46,12.99,8.37,14.05,7.64,32.59-2.73,45.63Z"/>
    <path d="M728.37,312.08c-.72-2.71-.42-5.33-.24-8.49,11.98-.29,18.34-8.08,18.69-20.13l.75-25.96.07-195.33-1.55-24.61c-.58-9.22-8.7-14.92-18.52-13.93l-.03-8.84,68.47.02.06,237.09.95,31.25c.13,4.24.86,8.63,2.78,12.35,3.02,5.86,9.49,7.97,15.95,8.03l.14,8.54h-87.51Z"/>
    <path d="M996.59,171.5c-5.51-30.7-21.38-67.32-55.15-70.58-12.02-1.16-22.84,2.94-31.69,11-6.65,6.06-10.98,13.31-16.2,21.2l-.38-25.75-67.2.04.13,8.31c17.35-.48,18.99,16.35,18.99,32.76l.03,215.78-1.4,20.3c-.63,9.14-8,14.8-17.46,14.66l-.08,9.13,91.12.02v-8.79c-11.21.09-20.18-3.45-22.25-13.96-1.29-6.55-1.73-12.94-1.74-19.84v-73.19c7.59,9.88,15.51,18.43,26.81,23.04,12.78,5.21,26.95,3.36,38.97-3.22,20.52-11.57,31.6-35.76,36.43-58.47,5.8-27.29,5.98-55.01,1.06-82.47ZM946.88,255.91c-1.62,13.55-5.86,35.19-18.08,38.98-13.8,4.28-28.89-13.95-35.51-26.76v-102.7c2.35-17.31,16.39-42.6,33.89-36.5,5.77,2.01,10.25,6.65,12.55,12.31,3.76,9.24,5.88,18.54,7.03,28.64,3.28,28.75,3.54,57.3.11,86.04Z"/>
    <path d="M94.2,248.2c-6.32-4.04-9.97-10.34-14.01-16.38-13.48-22.22-18.06-48.02-12.83-73.6,4.08-20.7,13.45-39.38,28.34-54.54,20.14-20.52,48.88-31.31,77.73-29.96-22.08,5.76-40.97,14.89-57.23,30.02-24.59,22.88-38.43,55.62-37.74,89.25.76,19.62,5.88,37.2,15.73,55.21Z"/>
    <path d="M91.36,100.1c-31.05,34.29-40.9,82.38-24.39,126.27-12.39-13.17-18.67-29.58-20.56-47.12-3.28-30.46,7.06-60.21,27.84-82.69,20.93-22.66,49.83-33.98,81.12-32.15-11.73,2.77-22.96,5.93-33.53,11.99-11.43,6.55-21.68,13.99-30.47,23.69Z"/>
    <path d="M128.86,121.38c-32.05,40.21-37.44,90.21-11.76,136.52-17.97-16.76-27.61-40.18-29.11-63.79-.59-15.85,1.24-30.25,6.86-44.86,15.21-40.82,54.72-68.42,99.25-67.06-26.42,7.37-47.18,18.35-65.24,39.18Z"/>
    <path d="M77.28,79.12c-6.78-15.56-5.82-33.02,3.29-47.78-5.87,4.9-8.03,12.07-10.52,19.01-2.01,6.93-2.51,13.62-3.43,21.21l-4.51-8.47c-11.7-21.94,1.43-50.06,25.29-59.54C95.26.43,103.21-.24,112.02.07c-4.38,6.4-6.55,13.01-7.58,20.49l-3.2,23.1c-2.58,15.36-8.14,30.84-23.96,35.46Z"/>
    <path d="M72.69,87.75c-8.07,8.78-18.96,13.81-30.81,14.44h-14.33c-9.34,0-18.09.22-27.54,2.92,9.35-21.38,32.35-38.47,55.06-35.71,6.1,1.16,11.72,4.07,14.84,10.14-8.34-1.15-16.81-1.21-24.26,3.25,9.89-1.27,18.85-1.45,27.05,4.95Z"/>
    <path d="M301.12,293.42c-9.38-.65-17.2-5.98-17.72-15.07l-1.87-32.47-.02-231.13-71.3-.03-.02,9.47c9.82-.48,18.54,2.69,20.64,12.12,1.16,5.2,2.05,10.24,2.04,15.78l-.08,73.15c-7.02-9.87-13.94-17.92-24.62-22.07-14.17-5.5-29.74-2.58-42.16,6.02-9.46,6.77-16.54,15.38-22.17,25.66-17.38,31.73-20.16,74.63-14.75,110.14,2.32,15.26,6.81,29.49,14.29,42.77,11.67,20.71,33.17,36.14,56.62,29.49,7.61-2.16,13.57-6.88,18.9-12.54l13.78-18.28.42,32.02,68.26-16.85c.48-2.83.41-5.44-.24-8.2ZM232.87,258.71c-2.76,11.26-8.66,21.03-17.35,28.34-4.17,3.11-8.59,4.91-14.13,3.94-20.78-3.63-24.75-57.59-24.14-78.47l1.22-41.65c.38-12.98,6.12-42.57,18.82-46.73,5.92-1.94,11.21-.62,16.06,2.46,9.65,7.79,16.5,18.17,19.52,30.44v101.66Z"/>
    <path d="M526.6,282.13c-10.03,27.46-37.78,44.44-65.9,32.16l-13.86-6.05c-3.19-1.39-6.88-1.4-9.66.83-2.55,2.05-3.62,5.12-4.51,8.29-2.47.52-4.73.55-6.9-.02l-2.47-73.51c2.26-.48,4.23-.37,6.63.04,5.49,19.72,14.44,41.38,31.95,52.78,6.13,3.99,13.4,5.86,20.37,3.26,6.91-2.58,11.18-9.01,12.28-16.21,1.65-10.76-1.96-21.07-9.85-28.43l-26.89-25.1c-11.98-11.19-25.55-24.18-31.76-39.61-9.67-24.02-6.15-51.58,9.23-72.26,7.54-10.15,17.85-16.33,30.34-17.52,6.7-.64,13.25-.34,19.53,2.19l14.03,7.32c3.24,1.69,7.16,2.1,10.02-.21,2.75-2.22,4.41-5.21,5.96-8.42l6.8-.17.98,34.73,1.3,34.92c-2.72.24-4.89.32-7.08-.08-5.5-19.99-14.77-41.41-33.43-50.9-6.29-3.2-14.22-3.53-19.69,1.04-8.5,7.11-9.07,19.1-3.11,28.13,5.32,8.05,12.23,14.03,19.34,20.6l31.85,29.43c9.21,9.77,16.22,20.77,18.66,34.19,2.96,16.33,1.48,33.08-4.19,48.6Z"/>
    <path d="M709.61,278.56c-1.96,3.09-3.84,5.96-7.1,6.94-4.01,1.21-7.63-2.21-7.84-6.23l-1-19.78-.19-101.82c-.05-28.31-16.84-51.38-44.61-55.84-26.13-4.2-54.3,3.7-71.85,23.9-8.98,10.33-15.09,25.19-13.16,38.98,1.42,10.14,7.89,19.06,17.54,22.35,8.97,3.06,18.89.93,24.81-6.41,8.08-10.03,7.72-24.03.52-34.45-1.86-2.69-3.6-5.12-4.71-8.15-1.92-5.24-.51-10.6,3.84-14.21,6.87-5.69,16.4-7.46,24.97-4.63,6.12,2.02,10.26,6.88,12.05,12.94,1.52,5.04,2.06,10.1,2.07,15.45l.06,34.61-44.2,28.6c-9.52,6.16-17.36,13.1-24.83,21.68-14.73,16.9-20.05,40.71-11.88,61.68,6.11,15.67,22.05,23.78,38.31,19.23,9.26-2.59,16.7-7.15,23.9-12.82l18.9-17.93c1.24,17.71,10.5,30.76,27.82,31.97,20.46,1.31,34.03-13.6,42.09-31.15l-5.51-4.91ZM624.63,277.02c-7.16.49-12.48-5.38-14.54-11.65-4.18-12.74-1.39-26,5.8-37.32,7.63-11.66,17.21-21.34,29.06-30.17l.07,66.36c-4.84,6.73-11.66,12.18-20.4,12.78Z"/>
    <path d="M649.38,378.03l.14,28.51c0,1.53,2.11,1.79,3.23,2.83l-12.16.42c-.16-1.46.12-2.6-.65-4.24-2.55,3.75-6.78,6.21-11.27,4.67-3.36-1.15-5.33-4.63-5.36-8.14l-.21-19.8c-.02-1.97-1.6-2.42-3.45-3.88l12.68-.37.05,24.92c0,1.87,1.58,3.28,3.49,2.76,2.06-.55,4.36-2.53,4.37-4.87l.06-18.57c0-1.99-1.65-2.43-3.5-3.84l12.58-.39Z"/>
    <path d="M526.18,381.21l.18,23.61c0,1.09,2.19,1.87,2.75,1.43l3.57-2.81c.44,3.65-3.44,6.39-6.39,6.82-4.39.64-8.86-1.97-8.95-6.27l-.46-22.51c-1.46.15-3.42,0-3.85-1.53,4.95-3.77,8.75-8.41,12.45-14.07,1.41,4.24.3,8.02.61,12.17l6.28.15c.53.11.78,2.35.15,2.74l-6.34.27Z"/>
    <path d="M760.84,409.33l-16.26.11c2.09-1.27,3.41-1.93,3.41-4.33v-22.13c.01-2.55-1.41-3.07-4.01-4.52l13.1-.45c.08,2.37-.38,4.24.47,6.76,1.98-3.71,4.37-7.36,8.92-7.53,2.9-.11,4.29,2.44,4.34,4.74s-1.43,5.03-4.43,4.74l-4.82-2.9c-2.66,1.41-4.13,4.75-4.18,7.82l-.22,14.2c-.03,1.67.99,2.29,3.67,3.5Z"/>
    <path d="M536.67,409.32c1.14-1.03,2.95-1.51,2.96-3.53l.07-22.81c0-2.56-1.45-3.04-4.04-4.51l13.04-.5c-.04,2.45-.32,4.21.45,6.64,1.54-3.16,3.61-5.94,7.03-7.16s5.9.68,6.27,3.81c.32,2.68-1.42,6-4.85,5.2l-4.5-2.67c-2.47,1.32-3.98,4.2-4.05,7.11l-.33,14.23c-.02,1.01.2,2.2.84,2.53l3.16,1.67c-5.03.59-9.71.65-16.05-.01Z"/>
    <path d="M509.14,403.49c-1.67,6.02-7.96,8.77-13.51,6.36-2.2-.96-3.58-1.27-5.98.71,0-4.5-.98-7.69-.08-11.85,2.51,4.07,3.94,7.86,8.03,9.15,2.16.68,4.29-.13,5.17-2.15.62-1.42-.09-3.42-1.79-4.78l-9.09-7.31c-3.68-2.96-4.02-8.4-1.42-12.33,4.9-7.42,13.44-1.98,14.46-2.17.77-.15,1.28-.92,2.44-1.94.25,3.7,1.07,7.33-.12,11.13-2.17-3.57-3.36-6.85-6.92-8.02-1.7-.56-3.59-.26-4.41,1.38-.52,1.04-.27,2.89,1.16,3.97l8.88,6.76c3.35,2.55,4.43,6.62,3.19,11.08Z"/>
    <path d="M485.61,409.41l-16.95.02c2.83-1.26,3.97-2.25,3.97-5.06v-20.66c.01-2.86-1.16-3.79-4.23-5.26l13.19-.27.04,26.95c-.03,2.52,1.56,2.95,3.98,4.29Z"/>
    <path d="M580.44,409.37l-16.05.23c1.46-1.91,3.73-.9,3.74-5.22l.04-20.68c0-2.8-1.1-3.8-4.16-5.25l12.93-.41.05,27.63c.05,2.02,1.5,2.46,3.46,3.69Z"/>
    <path d="M671.75,409.42l-16.15-.07c1.9-1.14,3.8-1.39,3.8-3.67v-23.28c0-2.25-1.89-2.6-3.99-3.92l12.84-.41.12,27.48c0,2.02,1.42,2.53,3.39,3.88Z"/>
    <circle cx="572.42" cy="367.54" r="4.94"/>
    <circle cx="477.06" cy="367.5" r="4.92"/>
    <circle cx="663.8" cy="367.54" r="4.91"/>
    <path d="M443.97,363.92l-23.22.23c2.12,1.46,6.1.94,6.1,3.97l-.04,36.89c0,3.06-4.44,2.88-6.48,4.31l23.57.34c13.48-.45,21.53-11.21,21.06-23.84-.45-12.14-8.37-22.04-20.98-21.91ZM451.4,399.82c-2.07,5.96-8.03,8.83-13.64,6.41l-.2-39.85c6.33-1.04,11.32,1.8,13.5,7.63,3.02,8.06,3.28,17.34.33,25.81Z"/>
    <path d="M704.45,405.63l-.18-42.02-13.88.66c1.78,1.08,4.66.94,4.66,3.08v13.63c-3.62-4.83-10.61-5.23-14.76-.53-6.27,7.09-6.71,18.64-1.16,26.14,2.23,3.01,5.36,4.37,8.46,4.22,3.11-.15,5.42-1.81,7.4-4.7l.82,4.8,12.35-3.19c-1.21-1.33-2.46-1.3-3.7-2.09ZM695.1,401.61c-.03,2.14-2.87,4.63-5.32,4.66-6.28.1-7.17-24.38-.64-25.38,2.65-.41,6.2,2.83,6.15,6.35l-.19,14.36Z"/>
    <path d="M735.79,381.54c-4.43-5.22-13.24-5.87-18.24-1.07-7.25,6.95-7.62,19.14-.76,26.54,4.89,5.27,14.34,5.03,19.15-.64,6.11-7.19,5.7-17.92-.15-24.82ZM726.18,408.07c-1.57.03-3.89-1.3-4.18-3.52-1.17-8.99-1.7-24.6,4.17-24.51,1.73.02,3.68,1.48,4.02,3.7,1.34,8.72,1.81,24.23-4.01,24.34Z"/>
    <path d="M612.62,382.84c-1.71-3.25-4.92-5.01-7.85-5.48-3.66-.59-6.24.89-9.52,3.18l-.05-16.92-12.44.29c.74,1.7,2.08,1.52,3.22,2.12l.22,44.96,6.21-3.36c5.99,4.88,14.21,3.81,18.92-2.64,4.82-6.6,4.93-15.2,1.29-22.15ZM599.24,408.16c-1.94-.24-3.93-2.1-3.95-4.59l-.14-17.68c-.02-2.69,2.7-4.23,4.78-4.41,2.37-.2,4.21,1.48,4.94,4.2,2.47,9.25.89,23.29-5.63,22.49Z"/>
    <path d="M801.03,405.79c-.41.17-1.42-.2-1.43-.94l-.34-20.46c-.09-5.58-9.46-9.53-19.29-5.06-3.17,1.44-5.37,4.72-4.48,8.15.54,2.07,2.47,2.96,4.14,2.85,1.87-.12,3.33-.99,3.94-2.88.46-1.45-1.14-2.96-1.27-4.8-.16-2.45,4.8-3.47,6.81-1.42,1.65,1.68,2.29,6.33,1.14,8.35l-11.82,6.77c-2.11,1.21-3.58,3.49-4.07,6.33-.76,4.43,2.29,7.89,6.41,7.83,3.92-.06,6.83-2.51,9.78-5.02.53,1.79.87,3.33,2.15,4.04,4.09,2.26,9.41.17,10.59-4.2-1.22-.42-1.81.28-2.27.47ZM790.32,402.43c-.6,2.25-4.43,2.77-5.96,1.64-1.55-1.15-1.92-3.95-.48-5.84,1.8-2.36,3.85-4.33,6.69-5.42-.06,3.33.63,6.33-.26,9.63Z"/>
  </g>
</svg>
