<?xml version="1.0" encoding="UTF-8"?>
<svg id="Camada_2" data-name="Camada 2" xmlns="http://www.w3.org/2000/svg" viewBox="0 0 469.9 496.63">
  <defs>
    <style>
      .cls-1 {
        fill: #1d8ecc;
      }

      .cls-2 {
        fill: #10984c;
      }

      .cls-3 {
        fill: #f4851d;
      }

      .cls-4 {
        fill: #ea1c22;
      }

      .cls-5 {
        fill: #a5c938;
      }

      .cls-6 {
        fill: #0f984b;
      }
    </style>
  </defs>
  <g id="Camada_1-2" data-name="Camada 1">
    <g>
      <path class="cls-3" d="M146.74,386.62c-9.85-6.3-15.53-16.1-21.82-25.51-21-34.61-28.13-74.79-19.98-114.65,6.36-32.24,20.96-61.34,44.14-84.96,31.37-31.97,76.14-48.77,121.08-46.66-34.4,8.98-63.82,23.2-89.14,46.76-38.3,35.64-59.85,86.64-58.78,139.01,1.18,30.56,9.16,57.95,24.5,86.01Z"/>
      <path class="cls-1" d="M142.31,155.93c-48.37,53.41-63.71,128.32-37.99,196.69-19.3-20.51-29.09-46.08-32.03-73.39-5.11-47.44,11-93.78,43.36-128.81,32.61-35.3,77.61-52.92,126.36-50.07-18.27,4.31-35.77,9.24-52.23,18.68-17.81,10.21-33.77,21.79-47.47,36.91Z"/>
      <path class="cls-5" d="M200.73,189.07c-49.93,62.63-58.31,140.51-18.32,212.65-28-26.11-43.01-62.59-45.34-99.36-.92-24.69,1.93-47.11,10.68-69.88,23.69-63.59,85.23-106.58,154.6-104.45-41.16,11.48-73.49,28.59-101.62,61.03Z"/>
      <path class="cls-2" d="M120.38,123.25c-10.57-24.24-9.07-51.44,5.12-74.43-9.14,7.64-12.51,18.79-16.39,29.61-3.13,10.8-3.91,21.22-5.34,33.04l-7.03-13.19c-18.22-34.18,2.23-77.97,39.4-92.74C148.39.67,160.76-.37,174.49.11c-6.83,9.97-10.2,20.27-11.81,31.92l-4.98,35.98c-4.02,23.93-12.68,48.04-37.32,55.24Z"/>
      <path class="cls-6" d="M113.22,136.68c-12.57,13.67-29.53,21.51-47.99,22.5h-22.32c-14.54,0-28.18.35-42.9,4.55,14.56-33.31,50.39-59.92,85.76-55.62,9.51,1.81,18.26,6.34,23.12,15.8-12.99-1.79-26.18-1.89-37.79,5.06,15.41-1.98,29.36-2.26,42.13,7.71Z"/>
      <path class="cls-4" d="M469.04,457.04c-14.62-1.01-26.79-9.32-27.61-23.47l-2.91-50.58-.03-360.02-111.07-.04-.03,14.75c15.3-.74,28.88,4.19,32.15,18.89,1.8,8.1,3.19,15.94,3.18,24.59l-.13,113.94c-10.93-15.37-21.71-27.92-38.35-34.38-22.07-8.57-46.32-4.02-65.67,9.38-14.74,10.55-25.77,23.96-34.54,39.97-27.07,49.42-31.4,116.26-22.98,171.56,3.62,23.77,10.6,45.94,22.26,66.63,18.18,32.25,51.67,56.3,88.19,45.94,11.85-3.36,21.14-10.72,29.43-19.53l21.47-28.48.66,49.88,106.33-26.24c.75-4.41.64-8.47-.37-12.77ZM362.73,402.98c-4.31,17.54-13.49,32.75-27.02,44.15-6.5,4.84-13.39,7.65-22.01,6.14-32.37-5.66-38.56-89.7-37.6-122.22l1.9-64.88c.59-20.22,9.53-66.31,29.31-72.78,9.22-3.02,17.46-.96,25.02,3.83,15.03,12.13,25.7,28.3,30.4,47.41v158.35Z"/>
    </g>
  </g>
</svg>
